# xmcd CD database file
#
# Track frame offsets:
#	150
#	24487
#	61650
#	71272
#	120457
#	171642
#	213287
#
# Disc length: 3222 seconds
#
# Revision: 0
# Processed by: cddbd v1.5.2PL0 Copyright (c) Steve Scherf et al.
# Submitted via: CDex 2.09
#
DISCID=590c9407
DTITLE=Thelonius Monk - Misterioso
DYEAR=1958
DGENRE=Jazz
TTITLE0=Nutty
TTITLE1=Blues five spot
TTITLE2=Just a gigolo
TTITLE3=Misterioso
TTITLE4=In walked Bud
TTITLE5=Let's cool one
TTITLE6=Round midnight
EXTD=YEAR: 1958
EXTT0=
EXTT1=
EXTT2=
EXTT3=
EXTT4=
EXTT5=
EXTT6=
PLAYORDER=
